<?xml version="1.0" standalone="no"?>
<!DOCTYPE svg PUBLIC "-//W3C//DTD SVG 20010904//EN"
 "http://www.w3.org/TR/2001/REC-SVG-20010904/DTD/svg10.dtd">
<svg version="1.0" xmlns="http://www.w3.org/2000/svg"
 width="256.000000pt" height="50.000000pt" viewBox="0 0 256.000000 50.000000"
 preserveAspectRatio="xMidYMid meet">

<g transform="translate(0.000000,50.000000) scale(0.100000,-0.100000)"
fill="#000000" stroke="none">
<path d="M0 439 l0 -61 33 6 c86 18 145 18 177 2 30 -14 36 -14 81 0 59 20
108 13 146 -21 28 -23 28 -24 31 -169 l3 -146 -35 0 -36 0 0 119 c0 66 -3 127
-6 136 -10 24 -47 35 -86 25 l-33 -10 3 -135 4 -135 -36 0 -36 0 0 116 c0 63
-5 124 -11 135 -13 25 -53 41 -85 33 -24 -6 -24 -6 -24 -145 l0 -139 -35 0
-35 0 0 135 c0 83 -4 135 -10 135 -6 0 -10 -60 -10 -160 l0 -160 822 0 c669 0
819 2 804 13 -27 20 -36 79 -36 255 0 101 -4 162 -10 162 -5 0 -10 13 -10 29
0 23 5 31 23 34 12 2 -67 5 -176 6 -195 1 -197 1 -185 -19 18 -28 -1 -55 -37
-55 -36 0 -55 27 -37 55 12 20 10 20 -573 20 l-585 0 0 -61z m738 -66 c47 -35
65 -70 70 -131 5 -75 -22 -142 -70 -172 -40 -24 -126 -27 -168 -5 -109 57
-100 269 14 321 41 19 120 12 154 -13z m492 -118 c0 -122 2 -145 15 -145 10 0
15 -10 15 -30 l0 -30 -60 0 c-58 0 -60 1 -60 25 0 14 7 28 15 31 12 5 15 28
15 120 0 95 -3 114 -15 114 -9 0 -15 9 -15 24 0 21 5 25 38 29 20 2 40 4 45 5
4 1 7 -63 7 -143z m255 131 c46 -19 66 -54 72 -126 l6 -60 -112 0 c-64 0 -111
-4 -111 -10 0 -22 24 -59 46 -70 15 -8 44 -11 84 -7 57 5 60 4 66 -19 4 -14 3
-28 -1 -32 -3 -4 -42 -9 -85 -11 -94 -4 -137 16 -165 75 -25 54 -18 168 14
213 41 57 116 76 186 47z m-571 -111 c20 -63 41 -117 45 -120 5 -3 26 49 48
115 l38 120 43 0 c35 0 42 -3 42 -20 0 -10 -6 -23 -14 -27 -8 -5 -28 -46 -45
-93 -16 -47 -41 -111 -55 -143 -23 -51 -29 -57 -56 -57 -27 0 -33 6 -56 58
-14 31 -39 96 -56 145 -18 52 -36 87 -44 87 -8 0 -14 10 -14 25 0 23 4 25 44
25 l43 0 37 -115z"/>
<path d="M607 319 c-54 -42 -56 -160 -2 -195 34 -22 84 -14 107 17 44 58 28
162 -28 188 -35 16 -47 14 -77 -10z"/>
<path d="M1369 311 c-16 -16 -29 -34 -29 -40 0 -7 28 -11 75 -11 84 0 95 11
50 55 -32 33 -60 31 -96 -4z"/>
<path d="M1660 299 c0 -200 6 -239 35 -239 10 0 15 -10 15 -30 l0 -30 425 0
425 0 0 51 0 51 -19 -23 c-18 -22 -26 -24 -114 -24 -53 0 -97 2 -100 5 -3 3
-2 20 0 38 4 26 10 32 30 32 13 0 31 -7 40 -16 11 -10 25 -13 47 -8 71 14 62
49 -23 90 -74 36 -91 55 -91 104 0 70 58 108 152 97 63 -8 67 -11 59 -49 -6
-28 -11 -32 -32 -30 -13 2 -25 8 -27 13 -5 12 -39 11 -63 -1 -39 -22 -23 -49
49 -81 37 -16 73 -37 80 -46 10 -14 12 12 12 140 l0 157 -450 0 -450 0 0 -201z
m256 86 c42 -17 73 -78 74 -142 l0 -43 -110 0 c-104 0 -110 -1 -110 -20 0 -12
12 -33 26 -47 24 -24 31 -25 94 -21 66 5 69 4 75 -20 3 -13 3 -27 0 -31 -4 -3
-42 -8 -84 -9 -116 -6 -161 24 -182 119 -34 152 85 270 217 214z m304 2 c59
-21 74 -61 79 -209 l3 -128 -36 0 -36 0 0 104 c0 56 -5 117 -10 133 -13 37
-51 56 -96 47 l-34 -6 0 -139 0 -139 -35 0 -35 0 0 135 c0 83 -4 135 -10 135
-5 0 -10 13 -10 29 0 28 3 30 48 36 26 4 52 8 57 10 22 7 82 3 115 -8z"/>
<path d="M1814 328 c-18 -8 -44 -46 -44 -63 0 -3 34 -5 76 -5 73 0 75 1 69 23
-8 27 -42 57 -64 56 -9 0 -26 -5 -37 -11z"/>
</g>
</svg>
